<?xml version="1.0" encoding="utf-8"?>
<!-- Generator: Adobe Illustrator 21.1.0, SVG Export Plug-In . SVG Version: 6.00 Build 0)  -->
<svg version="1.1" id="Camada_1" xmlns="http://www.w3.org/2000/svg" xmlns:xlink="http://www.w3.org/1999/xlink" x="0px" y="0px"
	 viewBox="0 0 1920 1080" style="enable-background:new 0 0 1920 1080;" xml:space="preserve">
<style type="text/css">
	.st0{fill:#F5E1CA;}
	.st1{fill:#D36D46;}
	.st2{fill:#CF5A51;}
	.st3{fill:#444344;}
	.st4{fill:#E5E5E5;}
	.st5{fill:#FFFFFF;}
	.st6{fill:#4F4F50;}
	.st7{fill:#646566;}
	.st8{fill:#6C543A;}
	.st9{fill:#80674E;}
	.st10{fill:#E7B9A4;}
	.st11{fill:#745C45;}
	.st12{fill:#F2D8BF;}
	.st13{fill:#272425;}
	.st14{fill:#313161;}
	.st15{fill:#65172B;}
	.st16{fill:#D98697;}
	.st17{fill:none;stroke:#E7B9A4;stroke-width:1.4173;stroke-miterlimit:10;}
	.st18{fill:#40498B;}
	.st19{fill:none;stroke:#7C2122;stroke-width:4.252;stroke-miterlimit:10;}
	.st20{fill:#7C2122;}
	.st21{fill:none;stroke:#7C2122;stroke-width:4.252;stroke-linecap:round;stroke-miterlimit:10;}
</style>
<g>
	<g>
		<path class="st0" d="M989.7,712c-2.9,0-5.8-0.3-8.6-1c-31.7-7.5-42.3-53.3-43.4-58.5c-1.2-5.7,2.4-11.3,8.2-12.6
			c5.7-1.2,11.3,2.4,12.6,8.1l0,0c2.1,9.8,11.7,38.5,27.6,42.3c11.6,2.7,27.9-8.2,46-30.8c3.7-4.6,10.3-5.3,14.9-1.6
			c4.6,3.7,5.3,10.3,1.6,14.9C1027.7,698.9,1007.9,712,989.7,712z"/>
		<path class="st0" d="M954.3,637.3c-8-3.4-9.5-1-14.7,4.2c-5.2,5.2-9.5,9.5-4.2,14.7c5.2,5.2,16,7.5,21.2,2.3
			C961.8,653.3,959.5,642.5,954.3,637.3z"/>
		<path class="st0" d="M927.8,641.7c-0.8-0.8-2.1-0.8-2.9,0l0,0c-0.8,0.8-0.8,2.1,0,2.9l11.1,11.1c0.8,0.8,2.1,0.8,2.9,0l0,0
			c0.8-0.8,0.8-2.1,0-2.9L927.8,641.7z"/>
		<path class="st0" d="M928.3,633.3c-0.8-0.8-2.1-0.8-2.9,0l0,0c-0.8,0.8-0.8,2.1,0,2.9l11.1,11.1c0.8,0.8,2.1,0.8,2.9,0l0,0
			c0.8-0.8,0.8-2.1,0-2.9L928.3,633.3z"/>
		<path class="st0" d="M931.5,627.4c-0.8-0.8-2.1-0.8-2.9,0l0,0c-0.8,0.8-0.8,2.1,0,2.9l11.1,11.1c0.8,0.8,2.1,0.8,2.9,0l0,0
			c0.8-0.8,0.8-2.1,0-2.9L931.5,627.4z"/>
		<path class="st0" d="M958.7,632.4c0.3-0.7-0.5-1.7-1.8-2.2l0,0c-1.3-0.5-2.6-0.3-2.8,0.5l-3.9,10.3c-0.3,0.7,0.5,1.7,1.8,2.2l0,0
			c1.3,0.5,2.6,0.3,2.8-0.5L958.7,632.4z"/>
		<g>
			<path class="st1" d="M1054.5,652.1c-3.9-2.7-20.9,2.1-24.7,5.7c-11.2,10.6-20.5,19.8-28.5,25.1l3.8,28.9
				c14.7-5.2,30-17.6,45.6-37.2C1050.8,674.7,1057.4,654.2,1054.5,652.1z"/>
			<path class="st1" d="M964.5,659.9l-25.6,8.5c3.7,11.2,14.3,36.3,36.8,44.1l3.8-28.3C972.7,678.8,967.4,668.6,964.5,659.9z"/>
			<path class="st2" d="M986.9,687.6c-2.6-0.5-5-1.7-7.3-3.5l-3.8,28.3c2,0.7,4.1,1.3,6.3,1.7c2.4,0.4,4.9,0.7,7.4,0.7
				c5.2,0,10.4-1,15.7-2.9l-3.8-28.9C995.9,686.6,991.2,688.4,986.9,687.6z"/>
		</g>
		<path class="st2" d="M938.9,668.4l25.6-8.5c0.4,1.3,0.9,2.5,1.4,3.8c-8.5,3.3-17.1,5.9-25.6,8.5
			C939.8,670.8,939.3,669.5,938.9,668.4z"/>
		<g>
			<path class="st0" d="M938.3,625.2c-0.8-0.8-2.1-0.8-2.9,0l0,0c-0.8,0.8-0.8,2.1,0,2.9l11.1,11.1c0.8,0.8,2.1,0.8,2.9,0l0,0
				c0.8-0.8,0.8-2.1,0-2.9L938.3,625.2z"/>
		</g>
	</g>
	<g>
		<g>
			<g>
				<path class="st3" d="M1059.1,872.7c-3.2,1.3-7.4,2.1-12.1,2.1c-5,0-9.6-0.9-12.9-2.4c-16.8,1.9-23.6,18.6-20.2,22.2
					c4.6,4.9,21.8,6.7,34.1,0.8c4.7-2.3,13.1-0.4,13.1-5.3v-14.4C1061.1,874.3,1060.3,873.3,1059.1,872.7z"/>
				<path class="st4" d="M1021.6,877.4c3.3,1.2,5.6,3.2,7.7,5.4c1.1-1.1,2.3-2.1,3.6-3.1c-2.8-1.7-5.9-3.1-8.9-3.9
					C1023.2,876.3,1022.3,876.8,1021.6,877.4z"/>
				<path class="st5" d="M1024,875.8c3.1,0.8,6.1,2.2,8.9,3.9c1.1-0.8,2.2-1.7,3.4-2.4c-2.4-1.7-4.9-3-7.8-3.6
					C1027,874.2,1025.4,874.9,1024,875.8z"/>
				<path class="st6" d="M1013.3,889.9c-0.4,2-0.2,3.7,0.6,4.6c4.6,4.9,21.8,6.7,34.1,0.8c4.7-2.3,13.1-0.4,13.1-5.3v-2.9
					c-3.8,0.3-10.3,1.4-18,4.8C1033.9,896,1022.6,893.8,1013.3,889.9z"/>
				<path class="st7" d="M1013.3,889.9c5.4,2.3,11.6,3.9,17.6,4.1c-1.4-7.2-6.1-12.7-12.1-14.1
					C1015.7,883.3,1013.9,887,1013.3,889.9z"/>
				<path class="st5" d="M1026.9,885.3c0.8-0.8,1.6-1.7,2.4-2.5c-2.2-2.2-4.5-4.1-7.7-5.4c-1,0.8-2,1.7-2.8,2.6
					C1021.9,880.7,1024.7,882.6,1026.9,885.3z"/>
				<circle class="st5" cx="1052.1" cy="881.1" r="3.6"/>
				<g>
					<path class="st5" d="M1013.3,889.8c0-0.3,0.1-0.5,0.2-0.8C1013.5,889.3,1013.4,889.6,1013.3,889.8z"/>
				</g>
				<path class="st4" d="M1034.2,872.3c-2,0.2-3.8,0.7-5.6,1.3c2.8,0.6,5.4,1.9,7.8,3.6c1.5-1,3.2-2,5-2.9
					C1038.6,873.9,1036.2,873.2,1034.2,872.3z"/>
			</g>
			<g>
				<path class="st8" d="M1045.4,876c-7.9,0-18.6,0-18.6-5.3l4.3-108.2c0-5.3,6.4-9.5,14.3-9.5l0,0c7.9,0,14.3,4.3,14.3,9.5
					l4.3,108.2C1063.9,876,1053.3,876,1045.4,876z"/>
			</g>
			<path class="st9" d="M1045.4,869c-6.5,0-14.6,0-18.4-2.2l-0.1,3.9c0,5.3,10.7,5.3,18.6,5.3c7.9,0,18.6,0,18.6-5.3l-0.1-3.9
				C1060,869,1051.9,869,1045.4,869z"/>
		</g>
	</g>
	<g>
		<g>
			<path class="st3" d="M1089.4,872.7c3.2,1.3,7.4,2.1,12.1,2.1c5,0,9.6-0.9,12.9-2.4c16.8,1.9,23.6,18.6,20.2,22.2
				c-4.6,4.9-21.8,6.7-34.1,0.8c-4.7-2.3-13.1-0.4-13.1-5.3v-14.4C1087.4,874.3,1088.2,873.3,1089.4,872.7z"/>
			<path class="st4" d="M1126.9,877.4c-3.3,1.2-5.6,3.2-7.7,5.4c-1.1-1.1-2.3-2.1-3.6-3.1c2.8-1.7,5.9-3.1,8.9-3.9
				C1125.4,876.3,1126.2,876.8,1126.9,877.4z"/>
			<path class="st5" d="M1124.5,875.8c-3.1,0.8-6.1,2.2-8.9,3.9c-1.1-0.8-2.2-1.7-3.4-2.4c2.4-1.7,4.9-3,7.8-3.6
				C1121.6,874.2,1123.1,874.9,1124.5,875.8z"/>
			<path class="st6" d="M1135.2,889.9c0.4,2,0.2,3.7-0.6,4.6c-4.6,4.9-21.8,6.7-34.1,0.8c-4.7-2.3-13.1-0.4-13.1-5.3v-2.9
				c3.8,0.3,10.3,1.4,18,4.8C1114.6,896,1126,893.8,1135.2,889.9z"/>
			<path class="st7" d="M1135.2,889.9c-5.4,2.3-11.6,3.9-17.6,4.1c1.4-7.2,6.1-12.7,12.1-14.1C1132.8,883.3,1134.7,887,1135.2,889.9
				z"/>
			<path class="st5" d="M1121.6,885.3c-0.8-0.8-1.6-1.7-2.4-2.5c2.2-2.2,4.5-4.1,7.7-5.4c1,0.8,2,1.7,2.8,2.6
				C1126.6,880.7,1123.8,882.6,1121.6,885.3z"/>
			<circle class="st5" cx="1096.4" cy="881.1" r="3.6"/>
			<g>
				<path class="st5" d="M1135.2,889.8c-0.1-0.3-0.1-0.5-0.2-0.8C1135.1,889.3,1135.1,889.6,1135.2,889.8z"/>
			</g>
			<path class="st4" d="M1114.4,872.3c2,0.2,3.8,0.7,5.5,1.3c-2.8,0.6-5.4,1.9-7.8,3.6c-1.5-1-3.2-2-5-2.9
				C1109.9,873.9,1112.4,873.2,1114.4,872.3z"/>
		</g>
		<g>
			<path class="st8" d="M1103.1,876c7.9,0,18.6,0,18.6-5.3l-4.3-108.2c0-5.3-6.4-9.5-14.3-9.5l0,0c-7.9,0-14.3,4.3-14.3,9.5
				l-4.3,108.2C1084.6,876,1095.3,876,1103.1,876z"/>
		</g>
		<path class="st9" d="M1103.1,869c6.5,0,14.6,0,18.4-2.2l0.1,3.9c0,5.3-10.7,5.3-18.6,5.3c-7.9,0-18.6,0-18.6-5.3l0.1-3.9
			C1088.5,869,1096.7,869,1103.1,869z"/>
	</g>
	<g>
		<g>
			<path class="st0" d="M1158.8,712c-18.2,0-37.9-13.1-58.8-39.1c-3.7-4.6-2.9-11.2,1.6-14.9c4.6-3.7,11.2-2.9,14.9,1.6
				c18.1,22.6,34.5,33.5,46,30.8c15.9-3.8,25.5-32.5,27.6-42.3c1.2-5.7,6.8-9.4,12.6-8.1c5.7,1.2,9.4,6.8,8.1,12.5
				c-1.1,5.2-11.7,50.9-43.4,58.5C1164.6,711.7,1161.7,712,1158.8,712z"/>
			<g>
				<path class="st0" d="M1194.2,637.3c8-3.4,9.5-1,14.7,4.2c5.2,5.2,9.5,9.5,4.2,14.7c-5.2,5.2-16,7.5-21.2,2.3
					C1186.7,653.3,1189,642.5,1194.2,637.3z"/>
				<path class="st0" d="M1220.8,641.7c0.8-0.8,2.1-0.8,2.9,0l0,0c0.8,0.8,0.8,2.1,0,2.9l-11.1,11.1c-0.8,0.8-2.1,0.8-2.9,0l0,0
					c-0.8-0.8-0.8-2.1,0-2.9L1220.8,641.7z"/>
				<path class="st0" d="M1220.2,633.3c0.8-0.8,2.1-0.8,2.9,0l0,0c0.8,0.8,0.8,2.1,0,2.9l-11.1,11.1c-0.8,0.8-2.1,0.8-2.9,0l0,0
					c-0.8-0.8-0.8-2.1,0-2.9L1220.2,633.3z"/>
				<path class="st0" d="M1217,627.4c0.8-0.8,2.1-0.8,2.9,0l0,0c0.8,0.8,0.8,2.1,0,2.9l-11.1,11.1c-0.8,0.8-2.1,0.8-2.9,0l0,0
					c-0.8-0.8-0.8-2.1,0-2.9L1217,627.4z"/>
				<path class="st0" d="M1210.2,625.2c0.8-0.8,2.1-0.8,2.9,0l0,0c0.8,0.8,0.8,2.1,0,2.9l-11.1,11.1c-0.8,0.8-2.1,0.8-2.9,0l0,0
					c-0.8-0.8-0.8-2.1,0-2.9L1210.2,625.2z"/>
				<path class="st0" d="M1189.8,632.4c-0.3-0.7,0.5-1.7,1.8-2.2l0,0c1.3-0.5,2.6-0.3,2.8,0.5l3.9,10.3c0.3,0.7-0.5,1.7-1.8,2.2l0,0
					c-1.3,0.5-2.6,0.3-2.8-0.5L1189.8,632.4z"/>
			</g>
			<g>
				<path class="st1" d="M1118.7,657.9c-3.8-3.6-20.8-8.4-24.7-5.7c-3,2.1,3.6,22.6,3.6,22.6c15.7,19.5,31,32,45.6,37.2l3.8-28.9
					C1139.2,677.7,1129.9,668.5,1118.7,657.9z"/>
				<path class="st1" d="M1209.6,668.4l-25.6-8.5c-2.9,8.7-8.2,18.9-15,24.2l3.8,28.3C1195.2,704.7,1205.9,679.5,1209.6,668.4z"/>
				<path class="st2" d="M1161.7,687.6c-4.3,0.8-9.1-1-14.5-4.6l-3.8,28.9c5.3,1.9,10.6,2.9,15.7,2.9c2.5,0,4.9-0.2,7.4-0.7
					c2.2-0.4,4.3-1,6.3-1.7l-3.8-28.3C1166.7,685.9,1164.2,687.1,1161.7,687.6z"/>
			</g>
			<path class="st2" d="M1209.6,668.4l-25.6-8.5c-0.4,1.3-0.9,2.5-1.4,3.8c8.5,3.3,17.1,5.9,25.6,8.5
				C1208.7,670.8,1209.2,669.5,1209.6,668.4z"/>
		</g>
	</g>
	<g>
		<g>
			<g>
				<path class="st1" d="M1121.2,721.7c-1.2-17.7-4-44.3-8.2-55c-8.4-21.3-22.1-16.8-38.8-16.8c-16.6,0-30.4-4.5-38.8,16.8
					c-4.2,10.6-7,37.3-8.2,55c-4.1,61.6,14.3,57.6,47,57.6C1106.9,779.3,1125.3,783.3,1121.2,721.7z"/>
				<path class="st2" d="M1104.2,702l-9.7-11.6l9.7-11.6l9.7,11.6L1104.2,702z M1096.8,690.4l7.4,8.9l7.4-8.9l-7.4-8.9L1096.8,690.4
					z"/>
				<path class="st2" d="M1094,702l-9.7-11.6l9.7-11.6l9.7,11.6L1094,702z M1086.6,690.4l7.4,8.9l7.4-8.9l-7.4-8.9L1086.6,690.4z"/>
				<path class="st2" d="M1083.8,702l-9.7-11.6l9.7-11.6l9.7,11.6L1083.8,702z M1076.4,690.4l7.4,8.9l7.4-8.9l-7.4-8.9L1076.4,690.4
					z"/>
				<path class="st2" d="M1073.6,702l-9.7-11.6l9.7-11.6l9.7,11.6L1073.6,702z M1066.2,690.4l7.4,8.9l7.4-8.9l-7.4-8.9L1066.2,690.4
					z"/>
				<path class="st2" d="M1063.4,702l-9.7-11.6l9.7-11.6l9.7,11.6L1063.4,702z M1056,690.4l7.4,8.9l7.4-8.9l-7.4-8.9L1056,690.4z"/>
				<path class="st2" d="M1053.2,702l-9.7-11.6l9.7-11.6l9.7,11.6L1053.2,702z M1045.8,690.4l7.4,8.9l7.4-8.9l-7.4-8.9L1045.8,690.4
					z"/>
				<path class="st2" d="M1043,702l-9.7-11.6l9.7-11.6l9.7,11.6L1043,702z M1035.6,690.4l7.4,8.9l7.4-8.9l-7.4-8.9L1035.6,690.4z"/>
				<path class="st2" d="M1095.6,654.9c0-1.8-0.4-3.4-1.2-5c-6-0.9-12.8,0-20.2,0c-7.4,0-14.2-0.9-20.2,0c-0.8,1.6-1.2,3.2-1.2,5
					c0,8.5,9.6,15.3,21.4,15.3C1086.1,670.2,1095.6,663.4,1095.6,654.9z"/>
				<path class="st0" d="M1089.7,653.3c0,6-6.9,10.9-15.4,10.9l0,0c-8.5,0-15.4-4.9-15.4-10.9v-16.5c0-6,6.9-10.9,15.4-10.9l0,0
					c8.5,0,15.4,4.9,15.4,10.9V653.3z"/>
				<path class="st10" d="M1089.7,636.8c0-6-6.9-10.9-15.4-10.9c-8.5,0-15.4,4.9-15.4,10.9v8.8c10.4-0.1,20.6-0.3,30.8-0.5V636.8z"
					/>
				<path class="st0" d="M1058.8,645.6v7.7c0,6,6.9,10.9,15.4,10.9c8.5,0,15.4-4.9,15.4-10.9v-8.2
					C1079.4,645.3,1069.2,645.5,1058.8,645.6z"/>
				<path class="st8" d="M1071,746c-16,0-31-2.1-44.3-5.9c0.8,42.4,18.5,39.3,47.5,39.3c29.4,0,47.3,3.2,47.5-41.3
					C1107,743.1,1089.6,746,1071,746z"/>
				<path class="st9" d="M1116.3,762.2c0.9,0,1.7-0.1,2.5-0.2c1.9-5.8,2.9-13.6,3-24c-7.7,2.6-16.2,4.7-25.1,6
					C1097.4,754.2,1105.9,762.2,1116.3,762.2z"/>
				<path class="st9" d="M1051.8,744.9c-8.8-1-17.2-2.6-25-4.8c0.2,9.4,1.2,16.5,2.9,22c0.8,0.1,1.7,0.2,2.5,0.2
					C1042.3,762.2,1050.6,754.6,1051.8,744.9z"/>
				<path class="st11" d="M1070.8,751.2c18.5,0,35.8-2.6,50.7-7.1c0.1-1.9,0.2-3.9,0.2-6.1c-14.7,5-32.1,7.9-50.8,7.9
					c-16,0-31-2.1-44.3-5.9c0,2.1,0.1,4.1,0.3,6C1040.3,749.3,1055.1,751.2,1070.8,751.2z"/>
			</g>
		</g>
		<path class="st2" d="M1027.3,721.7c-0.1,2.2-0.3,4.3-0.3,6.4h94.6c-0.1-2-0.2-4.1-0.3-6.4c-0.3-4.2-0.7-8.9-1.1-13.8h-91.7
			C1027.9,712.8,1027.6,717.5,1027.3,721.7z"/>
	</g>
	<g>
		<path class="st0" d="M1201.4,529.5c0,58.9-47.7,106.6-106.6,106.6h-41.1c-58.9,0-106.6-47.7-106.6-106.6v-80.6
			c0-58.9,47.7-106.6,106.6-106.6h41.1c58.9,0,106.6,47.7,106.6,106.6V529.5z"/>
		<path class="st12" d="M1094.8,618.2h-41.1c-58.9,0-106.6-47.7-106.6-106.6v17.9c0,58.9,47.7,106.6,106.6,106.6h41.1
			c58.9,0,106.6-47.7,106.6-106.6v-17.9C1201.4,570.5,1153.7,618.2,1094.8,618.2z"/>
		<g>
			<g>
				<path class="st12" d="M952.6,537.9c0,10-8.1,18.2-18.2,18.2l0,0c-10,0-18.2-8.1-18.2-18.2v-22.1c0-10,8.1-18.2,18.2-18.2l0,0
					c10,0,18.2,8.1,18.2,18.2V537.9z"/>
				<path class="st12" d="M1232.2,537.9c0,10-8.1,18.2-18.2,18.2l0,0c-10,0-18.2-8.1-18.2-18.2v-22.1c0-10,8.1-18.2,18.2-18.2l0,0
					c10,0,18.2,8.1,18.2,18.2V537.9z"/>
				<path class="st0" d="M923.1,545.3v-22.1c0-10,7.8-18.2,17.4-18.2c4.1,0,7.8,1.5,10.8,3.9c-2.7-6.6-9.2-11.3-16.8-11.3
					c-10,0-18.2,8.1-18.2,18.2v22.1c0,6.5,3.5,12.3,8.6,15.5C923.7,551,923.1,548.2,923.1,545.3z"/>
				<path class="st0" d="M1214.1,497.7c-7.6,0-14.1,4.7-16.8,11.3c3-2.5,6.7-3.9,10.8-3.9c9.6,0,17.4,8.1,17.4,18.2v22.1
					c0,2.9-0.7,5.6-1.8,8.1c5.2-3.2,8.6-8.9,8.6-15.5v-22.1C1232.2,505.8,1224.1,497.7,1214.1,497.7z"/>
				<path class="st10" d="M1088.2,557.1c1.5,3.2-0.2,6.3-3.7,6.9l-5.7,0.9c-3.5,0.6-6.1-1.8-5.8-5.3l2-23.7c0.3-3.5,1.7-3.8,3.2-0.6
					L1088.2,557.1z"/>
			</g>
			<g>
				<ellipse class="st5" cx="1011.1" cy="543.9" rx="12.9" ry="19.9"/>
				<ellipse class="st9" cx="1013.3" cy="543.9" rx="10.7" ry="16.5"/>
				<ellipse class="st13" cx="1013.3" cy="543.9" rx="7.4" ry="11.4"/>
				<ellipse class="st5" cx="1017.9" cy="537.7" rx="2.1" ry="3.2"/>
				<g>
					<path class="st14" d="M1021.3,498.5c-1.4-1.2-2.6-2.2-3.9-3c-1.3-0.8-2.7-1.2-4-1.2c-1.4,0-2.7,0.4-4,1.2
						c-1.3,0.7-2.6,1.8-3.9,3c0.3-1.8,1.2-3.4,2.6-4.7c1.4-1.3,3.3-2.2,5.4-2.2c2.1,0,4,0.9,5.4,2.2
						C1020,495.1,1020.9,496.8,1021.3,498.5z"/>
				</g>
			</g>
			<g>
				<ellipse class="st5" cx="1137.5" cy="543.9" rx="12.9" ry="19.9"/>
				<path class="st9" d="M1145.9,543.9c0,9.1-4.8,16.5-10.7,16.5c-5.9,0-10.7-7.4-10.7-16.5c0-9.1,4.8-16.5,10.7-16.5
					C1141.1,527.4,1145.9,534.8,1145.9,543.9z"/>
				<ellipse class="st13" cx="1135.2" cy="543.9" rx="7.4" ry="11.4"/>
				<ellipse class="st5" cx="1139.8" cy="537.7" rx="2.1" ry="3.2"/>
				<g>
					<g>
						<path class="st14" d="M1143.2,498.5c-1.4-1.2-2.6-2.2-3.9-3c-1.3-0.8-2.7-1.2-4-1.2c-1.4,0-2.7,0.4-4,1.2
							c-1.3,0.7-2.6,1.8-3.9,3c0.3-1.8,1.2-3.4,2.6-4.7c1.4-1.3,3.3-2.2,5.4-2.2c2.1,0,4,0.9,5.4,2.2
							C1142,495.1,1142.8,496.8,1143.2,498.5z"/>
					</g>
				</g>
			</g>
		</g>
		<g>
			<g>
				<path class="st15" d="M1093.2,581.7c6.3,1.3,1.7,17-18.9,24.9c-20.6,5.5-25.2-22.4-18.9-30.9c5.2-9.7,8.6,4.7,18.9,6.2
					C1084.6,582.7,1087.9,576.9,1093.2,581.7z"/>
				<g>
					<path class="st5" d="M1091.8,580.8c-4.4-3.2-8.2,2-17.6,1.1c-9.4-1.4-13.1-13.5-17.6-8.2c3.4,7.7,9.9,13.5,17.6,13.8
						C1081.9,588,1088.4,584,1091.8,580.8z"/>
				</g>
			</g>
			<path class="st16" d="M1074.3,606.6c7-1.8,12.5-6.3,16.1-10.3c-3.7-0.7-9.5-0.8-16.1-0.3c-6.6,0.5-12.4,2.3-16.1,6.3
				C1061.7,606.3,1067.3,608.3,1074.3,606.6z"/>
		</g>
		<path class="st17" d="M1093.2,581.7c5.7,2.9,1.7,17-18.9,24.9c-20.6,5.5-25.2-22.4-18.9-30.9c5.2-9.7,8.6,4.7,18.9,6.2
			C1084.6,582.7,1086.9,578.5,1093.2,581.7z"/>
		<path class="st14" d="M949.2,537.9c0,0,43.5-46.4,45.4-91c26.9,26.9,209.6,71.8,274.6,3.1c-21.7,1.9-43.3-7.1-45.8-50.8
			c-4.3-75.5-204.1-133.1-251.2-24.1C924.5,333,913.3,514.4,949.2,537.9z"/>
		<ellipse class="st18" cx="1080" cy="339.6" rx="53.9" ry="15.3"/>
		<path class="st14" d="M1201,537.9c0,0-37.9-67.5-39.7-112.1c-1-20.4,7.6-45.2,16.7-50.8C1225.7,333,1236.9,514.4,1201,537.9z"/>
		<g>
			<path class="st18" d="M994.5,426.5c9.4,4.9,19.2,9,29,12.8c9.9,3.8,19.9,7.1,30,10c10.1,2.9,20.3,5.4,30.7,7.5
				c10.3,2.1,20.7,3.8,31.1,4.9c5.2,0.7,10.5,1.1,15.7,1.6c2.6,0.2,5.2,0.3,7.9,0.5l3.9,0.2l3.9,0.1c10.5,0.5,21,0.2,31.6-0.2
				c21-1.1,42-3.8,62.9-7.7c-20.3,6.4-41.3,10.4-62.6,12.4c-21.3,1.8-42.8,1.6-64-0.9c-10.6-1.3-21.2-3-31.6-5.3
				c-10.4-2.4-20.8-5.1-30.9-8.6c-10.1-3.4-20.1-7.3-29.8-11.8C1012.8,437.4,1003.3,432.5,994.5,426.5z"/>
		</g>
		<g>
			<path class="st18" d="M992.7,411.6c16.8,6.7,34,12,51.5,16.1c8.7,2,17.5,3.9,26.4,5.3c8.8,1.5,17.7,2.7,26.6,3.6
				c4.4,0.5,8.9,0.8,13.4,1.2c4.5,0.3,8.9,0.6,13.4,0.7c2.2,0.1,4.5,0.2,6.7,0.3l6.7,0.1c2.2,0.1,4.5,0,6.7,0c2.2,0,4.5,0,6.7,0
				c18-0.4,35.9-1.8,53.9-3.8c-17.5,4.5-35.6,7.2-53.7,8.4c-18.1,1.2-36.4,0.9-54.5-1c-9.1-1-18.1-2.2-27-4
				c-8.9-1.8-17.8-3.8-26.5-6.4C1025.5,427.2,1008.4,420.6,992.7,411.6z"/>
		</g>
		<g>
			<path class="st18" d="M989.9,401.4c17.4,2.2,34.7,4.2,52.1,6c8.7,0.8,17.3,1.7,26,2.3c8.7,0.7,17.4,1.3,26,1.6
				c8.7,0.4,17.4,0.6,26,0.5c4.3,0,8.7-0.1,13-0.3c4.3-0.2,8.6-0.5,13-0.9c4.3-0.4,8.6-0.9,12.9-1.6c4.3-0.7,8.5-1.5,12.7-2.6
				c8.3-2.2,16.5-5.4,23.3-11c-2.9,3.3-6.5,6-10.3,8.2c-3.8,2.3-7.9,4-12.1,5.6c-8.4,3-17.1,4.8-25.8,6.1
				c-8.8,1.3-17.6,1.8-26.4,2.2c-8.8,0.2-17.6,0.1-26.4-0.2c-8.8-0.5-17.6-1.1-26.3-2c-8.7-1-17.4-2-26.1-3.4
				C1024.1,409.3,1006.8,406,989.9,401.4z"/>
		</g>
		<g>
			<path class="st19" d="M1051.2,538.3c0,19.8-18,42.1-40.2,42.1s-40.2-22.3-40.2-42.1c0-19.8,18-33,40.2-33
				S1051.2,518.5,1051.2,538.3z"/>
			<path class="st19" d="M1177.6,538.3c0,19.8-18,42.1-40.2,42.1c-22.2,0-40.2-22.3-40.2-42.1c0-19.8,18-33,40.2-33
				C1159.6,505.3,1177.6,518.5,1177.6,538.3z"/>
			<g>
				<path class="st20" d="M1049.6,547.4c-0.9-6.5,1.3-13.6,5.9-18.8c4.6-5.3,11.6-8.4,18.7-8.4c7.1,0,14.1,3.1,18.7,8.4
					c4.6,5.2,6.9,12.3,5.9,18.8c-0.9-6.5-3.9-12.3-8.3-16.5c-4.5-4.1-10.3-6.5-16.3-6.5c-5.9,0-11.8,2.3-16.3,6.5
					C1053.5,535,1050.5,540.9,1049.6,547.4z"/>
			</g>
			<line class="st21" x1="971.6" y1="532.1" x2="927.8" y2="495.2"/>
			<line class="st21" x1="1176.9" y1="532.1" x2="1220.7" y2="495.2"/>
			<path class="st5" d="M1011.1,518.4c-9,0-22.5,1.4-28.8,9.3c6.9-5.6,18.3-6.7,26.2-6.7c12.1,0,32.3,2.6,32.3,19.9
				c0,7.9-3.8,16.6-9.8,23.3c7.6-6.9,12.4-16.9,12.4-25.9C1043.3,521,1023.1,518.4,1011.1,518.4z"/>
			<path class="st5" d="M1137.4,518.4c-9,0-22.5,1.4-28.8,9.3c6.9-5.6,18.3-6.7,26.2-6.7c12.1,0,32.3,2.6,32.3,19.9
				c0,7.9-3.7,16.6-9.8,23.3c7.6-6.9,12.4-16.9,12.4-25.9C1169.7,521,1149.5,518.4,1137.4,518.4z"/>
		</g>
	</g>
</g>
</svg>
